<svg xmlns="http://www.w3.org/2000/svg" viewBox="0 0 320 320" width="320" height="320" role="img" aria-label="Portrait placeholder of Laveena Wadhwani">
  <defs>
    <clipPath id="circ"><circle cx="160" cy="160" r="160"/></clipPath>
    <linearGradient id="bg" x1="0" y1="0" x2="0" y2="1">
      <stop offset="0" stop-color="#e3f0ea"/>
      <stop offset="1" stop-color="#cfe3da"/>
    </linearGradient>
  </defs>
  <g clip-path="url(#circ)">
    <rect width="320" height="320" fill="url(#bg)"/>
    <!-- shoulders / blazer -->
    <path d="M52 320c0-56 30-88 70-100h76c40 12 70 44 70 100z" fill="#d8d2c4"/>
    <path d="M124 220h72l-12 100h-48z" fill="#fff"/>
    <path d="M124 220l36 34 36-34 14 8-50 92-50-92z" fill="#d8d2c4"/>
    <!-- neck -->
    <path d="M136 190h48v42c0 10-48 10-48 0z" fill="#d9a074"/>
    <!-- hair back -->
    <path d="M84 150c0-56 34-92 76-92s76 36 76 92c0 46-6 84-24 106 8-46 2-92-8-108-30 10-72 4-88-10-8 26-10 72-4 118-18-22-28-60-28-106z" fill="#3d2b26"/>
    <!-- face -->
    <ellipse cx="160" cy="146" rx="56" ry="66" fill="#e8b591"/>
    <path d="M104 132c0-42 26-64 56-64s56 22 56 64c-8-26-26-38-56-38s-48 12-56 38z" fill="#3d2b26"/>
    <circle cx="138" cy="146" r="5.5" fill="#33231f"/>
    <circle cx="182" cy="146" r="5.5" fill="#33231f"/>
    <path d="M126 130c7-6 16-6 22-1M172 129c6-5 15-5 22 1" stroke="#3d2b26" stroke-width="5" fill="none" stroke-linecap="round"/>
    <path d="M156 158c-3 8 0 12 4 12" stroke="#c8895f" stroke-width="4" fill="none" stroke-linecap="round"/>
    <path d="M142 184c11 10 25 10 36 0" stroke="#b9704f" stroke-width="6" fill="none" stroke-linecap="round"/>
  </g>
</svg>
